<?xml version="1.0" encoding="iso-8859-1"?>
<!-- Generator: Adobe Illustrator 19.1.0, SVG Export Plug-In . SVG Version: 6.00 Build 0)  -->
<svg xmlns="http://www.w3.org/2000/svg" xmlns:xlink="http://www.w3.org/1999/xlink" version="1.1" id="Capa_1" x="0px" y="0px" viewBox="0 0 513.32 513.32" style="enable-background:new 0 0 513.32 513.32;" xml:space="preserve" width="512px" height="512px">
<g>
	<g>
		<g>
			<polygon points="399.962,222.439 504.765,121.914 479.098,94.11 335.797,222.439    " fill="#FFFFFF"/>
			<polygon points="423.489,32.084 389.268,12.834 248.105,222.439 299.437,222.439    " fill="#FFFFFF"/>
			<path d="M0,265.216l2.139,12.833c8.555,91.97,66.304,177.523,149.718,213.883l2.139,8.555h205.328l4.278-12.833     c83.414-38.499,141.163-113.358,149.718-203.189v-19.249H0z M348.63,457.711H164.69     c-59.887-21.388-102.664-85.553-115.497-149.718h419.211C453.433,372.158,408.517,436.323,348.63,457.711L348.63,457.711z" fill="#FFFFFF"/>
		</g>
	</g>
</g>
<g>
</g>
<g>
</g>
<g>
</g>
<g>
</g>
<g>
</g>
<g>
</g>
<g>
</g>
<g>
</g>
<g>
</g>
<g>
</g>
<g>
</g>
<g>
</g>
<g>
</g>
<g>
</g>
<g>
</g>
</svg>
